<svg width="48" height="48" viewBox="0 0 48 48" fill="none" xmlns="http://www.w3.org/2000/svg">
<g clip-path="url(#clip0_1_16)">
<path d="M24 0.75C11.1555 0.75 0.75 11.157 0.75 24C0.75 36.843 11.157 47.25 24 47.25C36.8445 47.25 47.25 36.843 47.25 24C47.25 11.157 36.843 0.75 24 0.75ZM35.4195 16.6785L31.6035 34.6605C31.3215 35.9355 30.5625 36.2445 29.5035 35.6445L23.691 31.3605L20.8875 34.0605C20.5785 34.3695 20.316 34.632 19.716 34.632L20.1285 28.716L30.9 18.984C31.3695 18.5715 30.7965 18.3375 30.177 18.75L16.8645 27.1305L11.127 25.3395C9.8805 24.9465 9.852 24.093 11.3895 23.493L33.8055 14.8485C34.8465 14.4735 35.7555 15.102 35.418 16.677L35.4195 16.6785Z" fill="black"/>
</g>
<defs>
<clipPath id="clip0_1_16">
<rect width="48" height="48" fill="white"/>
</clipPath>
</defs>
</svg>
