<svg width="48" height="48" viewBox="0 0 48 48" fill="none" xmlns="http://www.w3.org/2000/svg">
<g clip-path="url(#clip0_1_11)">
<path d="M24.0072 48.0144C37.266 48.0144 48.0144 37.266 48.0144 24.0072C48.0144 10.7484 37.266 0 24.0072 0C10.7484 0 0 10.7484 0 24.0072C0 37.266 10.7484 48.0144 24.0072 48.0144Z" fill="black"/>
<path fill-rule="evenodd" clip-rule="evenodd" d="M24.0936 27.0603C23.1143 29.0909 21.7606 31.856 21.0981 33.0945C20.4356 34.2322 19.9028 34.0738 19.4707 33.1233C18.0018 29.6238 14.9487 23.4888 13.5229 20.0468C13.2637 19.4131 13.0621 19.0099 12.8749 18.8515C12.6733 18.6931 12.2844 18.5923 11.694 18.5635C11.4635 18.5347 11.3627 18.4915 11.3627 18.405V17.9154L11.4059 17.8722C12.3852 17.8722 17.1089 17.8722 17.1089 17.8722L17.1521 17.9154V18.3762C17.1521 18.5059 17.0801 18.5635 16.9217 18.5635L16.3312 18.5923C15.8128 18.6211 15.5536 18.7651 15.5536 19.0531C15.5536 19.1971 15.6112 19.3987 15.7408 19.6868C16.8785 22.4807 20.8101 30.7759 20.8101 30.7759L20.9541 30.8191L23.4887 25.7498L22.9847 24.6265L21.2421 21.1845C21.2421 21.1845 20.9109 20.4933 20.7957 20.2772C20.018 18.7507 20.0324 18.6643 19.2691 18.5635C19.0531 18.5491 18.9379 18.5203 18.9379 18.405V17.9154L18.9955 17.8722H23.5175L23.6328 17.901V18.3762C23.6328 18.4915 23.5608 18.5347 23.4023 18.5347L23.0711 18.5923C22.2358 18.6499 22.3798 18.9955 22.9271 20.09L24.5977 23.5176L26.4554 19.8308C26.7579 19.1539 26.7003 18.9811 26.5707 18.8227C26.4986 18.7363 26.2538 18.5923 25.7066 18.5779L25.5049 18.5491C25.4473 18.5491 25.4041 18.5347 25.3465 18.4915C25.3033 18.4626 25.2745 18.4194 25.2745 18.3618V17.9154L25.3465 17.8578C26.6571 17.8578 29.6094 17.8578 29.6094 17.8578L29.667 17.9154V18.3762C29.667 18.4915 29.6094 18.5635 29.4653 18.5635C28.7741 18.5923 28.6445 18.6643 28.3852 19.0243C28.2556 19.2115 27.982 19.6436 27.7084 20.1188L25.2745 24.6121L25.2169 24.7561L28.1548 30.7759L28.3276 30.8335L32.9649 19.8308C33.1233 19.3843 33.0945 19.0675 32.8929 18.8947C32.6913 18.7075 32.5328 18.6067 31.9856 18.5779L31.5536 18.5635C31.4815 18.5635 31.4383 18.5491 31.3951 18.5059C31.3375 18.477 31.3087 18.4338 31.3087 18.3906V17.9298L31.3807 17.8866H36.6085L36.6517 17.9298V18.3906C36.6517 18.5203 36.5653 18.5779 36.4212 18.5779C35.7444 18.6067 35.2403 18.7651 34.9091 19.0243C34.5779 19.2835 34.3186 19.6724 34.1314 20.1476C34.1314 20.1476 29.8686 29.8974 28.414 33.1521C27.8668 34.2034 27.3051 34.117 26.8299 33.1089C26.225 31.8848 24.9577 29.1197 24.036 27.1035L24.0936 27.0603Z" fill="white"/>
</g>
<defs>
<clipPath id="clip0_1_11">
<rect width="48" height="48" fill="white"/>
</clipPath>
</defs>
</svg>
